<?xml version="1.0" standalone="no"?>
<!DOCTYPE svg PUBLIC "-//W3C//DTD SVG 20010904//EN"
 "http://www.w3.org/TR/2001/REC-SVG-20010904/DTD/svg10.dtd">
<svg version="1.0" xmlns="http://www.w3.org/2000/svg"
 width="400.000000pt" height="400.000000pt" viewBox="0 0 400.000000 400.000000"
 preserveAspectRatio="xMidYMid meet">
<metadata>
Created by potrace 1.16, written by Peter Selinger 2001-2019
</metadata>
<g transform="translate(0.000000,400.000000) scale(0.100000,-0.100000)"
fill="#000000" stroke="none">
<path d="M0 2000 l0 -2000 2000 0 2000 0 0 2000 0 2000 -2000 0 -2000 0 0
-2000z m2697 995 c126 -18 153 -28 153 -53 0 -10 -36 -67 -80 -127 -43 -60
-77 -112 -75 -116 3 -3 31 -10 62 -14 32 -4 66 -11 76 -16 41 -22 21 -56 -234
-400 -138 -187 -253 -339 -256 -339 -3 0 -54 29 -113 65 -59 36 -115 65 -125
65 -9 0 -36 -12 -61 -26 -45 -26 -52 -27 -139 -9 -23 5 -43 -1 -88 -28 -65
-40 -118 -52 -178 -42 -43 7 -341 181 -371 217 -26 30 -23 90 5 115 38 35 63
37 116 9 l49 -25 6 22 c10 38 7 57 -15 86 -17 23 -19 33 -10 49 24 44 43 38
235 -77 101 -61 186 -111 189 -111 3 0 90 115 193 255 103 140 196 257 205
260 9 3 46 1 81 -5 95 -15 101 -14 87 11 -8 16 -8 28 0 46 13 28 129 184 145
195 15 10 21 10 143 -7z m-1009 -1142 c141 -86 262 -160 267 -165 6 -6 3 -15
-10 -25 -15 -11 -37 -14 -93 -10 l-73 6 -76 -67 -76 -66 -61 32 c-34 18 -77
45 -95 60 l-34 28 23 96 24 97 -37 59 c-36 58 -48 112 -26 112 6 0 126 -70
267 -157z m-199 -295 c36 -23 76 -47 89 -55 18 -11 22 -22 22 -59 0 -25 -7
-58 -15 -74 -8 -16 -103 -111 -211 -211 -143 -133 -199 -178 -207 -170 -8 8 6
73 52 243 76 278 89 309 144 343 23 14 46 25 51 25 5 0 39 -19 75 -42z"/>
</g>
</svg>
